<?xml version="1.0" standalone="no"?>
<!DOCTYPE svg PUBLIC "-//W3C//DTD SVG 20010904//EN"
 "http://www.w3.org/TR/2001/REC-SVG-20010904/DTD/svg10.dtd">
<svg version="1.0" xmlns="http://www.w3.org/2000/svg"
 width="349.000000pt" height="26.000000pt" viewBox="0 0 349.000000 26.000000"
 preserveAspectRatio="xMidYMid meet">

<g transform="translate(0.000000,26.000000) scale(0.100000,-0.100000)"
fill="#000000" stroke="none">
<path d="M1724 252 c-6 -4 -17 -18 -23 -32 -11 -22 -10 -22 14 5 23 27 25 28
14 5 -12 -25 -12 -25 9 -7 15 14 21 15 25 5 4 -11 6 -11 6 0 1 7 7 10 14 7 6
-4 3 1 -7 9 -22 17 -35 20 -52 8z"/>
</g>
</svg>
