<svg xmlns="http://www.w3.org/2000/svg" width="349" height="26" viewBox="0 0 349 26" version="1.1"><path d="M 171.240 2.123 C 170.283 3.290, 168.643 5.075, 167.596 6.090 C 165.811 7.821, 164.195 14.217, 164.060 20.089 C 164.002 22.579, 164.324 22.726, 172.442 23.934 C 177.085 24.625, 181.360 24.896, 181.942 24.536 C 183.092 23.825, 183.383 12.164, 182.376 7.130 C 181.966 5.079, 180.641 3.323, 178.508 2.005 C 174.416 -0.524, 173.397 -0.508, 171.240 2.123 M 172.278 2.250 C 170.324 4.777, 169.657 6.330, 170.840 5.599 C 172.024 4.867, 174.393 1, 173.658 1 C 173.431 1, 172.810 1.563, 172.278 2.250 M 170.200 10.200 C 168.560 11.840, 168.693 14.500, 170.489 15.991 C 172.226 17.433, 171.566 19.154, 169.569 18.388 C 168.817 18.100, 167.913 18.331, 167.560 18.903 C 166.587 20.477, 171.783 21.425, 173.513 19.989 C 175.530 18.315, 175.382 16.655, 173.024 14.521 C 170.773 12.484, 171.209 11, 174.059 11 C 175.127 11, 176 10.550, 176 10 C 176 8.599, 171.651 8.749, 170.200 10.200" stroke="none" fill="#fca40c" fill-rule="evenodd"/><path d="M 182.371 7.107 C 182.717 8.836, 183 13.344, 183 17.125 C 183 23.333, 183.194 24, 185 24 C 187.350 24, 187.349 24.017, 185.804 13.334 C 185.025 7.947, 184.109 4.872, 183.176 4.514 C 182.046 4.080, 181.876 4.629, 182.371 7.107 M 283 12.037 C 257.425 12.411, 226.713 12.781, 214.750 12.859 C 195.191 12.986, 193 13.168, 193 14.663 C 193 16.200, 196.651 16.276, 241.164 15.663 C 267.655 15.298, 303.013 15, 319.738 15 C 348.160 15, 350.125 14.886, 349.812 13.250 C 349.401 11.107, 348.116 11.084, 283 12.037 M 1 14.500 C 1 15.821, 10.500 16, 80.500 16 C 150.500 16, 160 15.821, 160 14.500 C 160 13.179, 150.500 13, 80.500 13 C 10.500 13, 1 13.179, 1 14.500" stroke="none" fill="#f8d608" fill-rule="evenodd"/></svg>